<?xml version="1.0" encoding="UTF-8"?>
<!DOCTYPE svg PUBLIC "-//W3C//DTD SVG 1.1//EN" "http://www.w3.org/Graphics/SVG/1.1/DTD/svg11.dtd">
<!-- Creator: CorelDRAW 2018 (64-Bit Evaluation Version) -->
<svg xmlns="http://www.w3.org/2000/svg" xml:space="preserve" width="150mm" height="150mm" version="1.1" style="shape-rendering:geometricPrecision; text-rendering:geometricPrecision; image-rendering:optimizeQuality; fill-rule:evenodd; clip-rule:evenodd"
viewBox="0 0 15000 15000"
 xmlns:xlink="http://www.w3.org/1999/xlink">
 <defs>
  <style type="text/css">
   <![CDATA[
    .fil0 {fill:#FEFEFE}
    .fil4 {fill:#FFED00}
    .fil3 {fill:#692721}
    .fil6 {fill:#727271;fill-rule:nonzero}
    .fil7 {fill:#2B2A29;fill-rule:nonzero}
    .fil1 {fill:#393185;fill-rule:nonzero}
    .fil2 {fill:url(#id0)}
    .fil5 {fill:url(#id1)}
   ]]>
  </style>
  <linearGradient id="id0" gradientUnits="userSpaceOnUse" x1="10186.81" y1="8057.19" x2="11992.61" y2="6579.73">
   <stop offset="0" style="stop-opacity:1; stop-color:#CC0C12"/>
   <stop offset="0.34902" style="stop-opacity:1; stop-color:#E33439"/>
   <stop offset="0.588235" style="stop-opacity:1; stop-color:#F58634"/>
   <stop offset="1" style="stop-opacity:1; stop-color:#FDB92E"/>
  </linearGradient>
  <linearGradient id="id1" gradientUnits="userSpaceOnUse" xlink:href="#id0" x1="4244.4" y1="9046.07" x2="9894.34" y2="8981.27">
  </linearGradient>
 </defs>
 <g id="Layer_x0020_1">
  <metadata id="CorelCorpID_0Corel-Layer"/>
  <rect class="fil0" x="1643.97" y="5830.89" width="12221.28" height="3338.22"/>
  <g id="_2591759560912">
   <g>
    <path class="fil1" d="M3582.87 7660.12c0,43.54 -15.76,90.38 -47.3,140.46 -30.56,48.51 -76.13,100.35 -136.71,155.44l-0.03 -0.04c-62.93,57.65 -132.57,108.93 -208.85,153.77 -76.33,44.87 -159.14,83.28 -248.31,115.14l-0.07 0c-84.7,29.99 -170.5,52.49 -257.31,67.47 -86.91,15 -174.84,22.51 -263.74,22.51 -122.72,0 -215.42,-18.85 -278.03,-56.46 -65.49,-39.35 -98.28,-98.25 -98.28,-176.59 0,-47 18.29,-91.7 54.83,-134.09 35.12,-40.75 87.36,-79.36 156.66,-115.79l0.01 0.03c59.53,-31.72 116.63,-55.56 171.14,-71.47 55.17,-16.11 107.68,-24.18 157.34,-24.18 18.53,0 33.09,3.17 43.63,9.56 13.31,8.07 19.97,20.04 19.97,35.94 0,13.42 -6.97,23.86 -20.87,31.49 -9.75,5.36 -23.54,9.29 -41.37,11.89l-0.01 -0.05c-45.11,6.99 -89.48,16.93 -133.17,29.87 -43.66,12.92 -86.57,28.85 -128.77,47.76l-0.13 0.07c-58.3,25.52 -101.75,52.28 -130.28,80.27 -26.59,26.09 -39.88,53.08 -39.88,80.99 0,32.23 19.68,56.77 59.06,73.62 44.22,18.92 111.67,28.37 202.37,28.37 149.12,0 309.36,-29.71 480.3,-89.1 87.31,-30.42 166.84,-65.11 238.58,-104.03 71.44,-38.76 134.9,-81.61 190.33,-128.53 53.96,-45.82 94.37,-85.83 121.14,-119.92 24.98,-31.81 37.5,-57.4 37.5,-76.72 0,-15.28 -14.97,-29.33 -44.9,-42.1 -35.45,-15.12 -89.42,-26.92 -161.89,-35.39 -120.77,-14.21 -216.42,-25.89 -287.06,-35.05 -69.55,-9.03 -111.79,-15.3 -126.66,-18.82l-0.07 -0.06c-76.84,-18.56 -134.83,-44.75 -173.97,-78.54 -41.05,-35.45 -61.55,-78.82 -61.55,-130.09 0,-62.04 23,-122.41 68.92,-181.01 44.77,-57.13 111.54,-112.66 200.22,-166.54 72.07,-43.75 153.86,-84.11 245.28,-120.96 91.06,-36.7 191.7,-70 301.83,-99.75 96.58,-26.07 183.68,-45.63 261.31,-58.68 78.26,-13.15 146.82,-19.72 205.69,-19.72 77.33,0 135.94,12.35 175.81,37.02 42.53,26.32 63.79,65.63 63.79,117.85 0,43.24 -18.4,89.64 -55.12,139.2 -35.31,47.66 -88.02,98.75 -158.03,153.27l-0.06 0.07c-67.63,52.18 -129.18,91.46 -184.59,117.75 -56.67,26.87 -107.3,40.35 -151.81,40.35 -37.43,0 -66.16,-6.92 -86.1,-20.69 -21.97,-15.16 -32.96,-37.46 -32.96,-66.79 0,-23.66 11.11,-48.59 33.26,-74.75 20.4,-24.1 50.64,-49.8 90.65,-77.06l0.07 -0.07c37.67,-25.44 71.37,-44.56 101.05,-57.36 30.9,-13.32 57.85,-19.96 80.8,-19.96 10.31,0 18.76,2.06 25.25,6.11l0.03 -0.05c9.09,5.66 13.68,13.97 13.68,24.81l0 10.28 -9.1 4.94 -116.3 63.16c-37.77,20.67 -66.37,38.48 -85.82,53.38 -7.14,5.48 -12.82,10.26 -17.01,14.32 23.97,-1.39 55.35,-9.93 94.04,-25.59 43.9,-17.77 96.55,-44.49 157.78,-80.04 64.65,-37.62 112.95,-71.74 144.85,-102.34 29.34,-28.14 44.02,-52.19 44.02,-72.13 0,-14.05 -9.63,-25.08 -28.83,-33.04 -24.14,-10.01 -61.39,-15.04 -111.67,-15.04 -59.3,0 -130.66,8.53 -214.08,25.54 -83.99,17.12 -180.47,42.89 -289.43,77.22l0.01 0.02c-74.09,23.4 -143.02,47.35 -206.73,71.81 -63.96,24.55 -123.74,50.02 -179.29,76.35l-0.06 0c-94.74,44.33 -165.67,86.46 -212.69,126.27 -44.06,37.3 -66.1,71.52 -66.1,102.58 0,36.94 55.96,65.88 167.84,86.47l361.94 47.69 0.27 0c71.85,10.76 129.78,24.05 173.79,39.81l0 0.07c46.24,16.57 78.08,36.32 95.52,59.21l0.2 0.27c17.91,24.44 31.41,48.9 40.43,73.36 9.19,24.91 13.8,49.83 13.8,74.76zm223.09 257.14c-39.69,32.4 -80.2,64.83 -121.53,97.34l-0.2 0.14 -202.18 154.43 -0.75 0.54c-49.94,34.08 -95.29,59.74 -135.81,76.93 -41.84,17.76 -78.85,26.64 -110.82,26.64 -9.48,0 -17.12,-3.17 -22.83,-9.35 -5.31,-5.76 -8.03,-13.37 -8.03,-22.67 0,-11.71 4.27,-21.32 12.89,-28.96 7,-6.2 16.7,-10.52 29.15,-13.06l0.4 -0.07c12.16,-2.18 26.07,-5.95 41.69,-11.34l0 -0.07c16.08,-5.54 33.56,-12.61 52.37,-21.19l0.34 -0.2c22.75,-9.8 58.74,-31.98 107.86,-66.62 49.22,-34.7 111.22,-81.64 185.89,-140.89l0.03 0.03 279.68 -233.13 0.07 -0.07c81.44,-67.09 143.72,-117.22 186.86,-150.31 46.54,-35.7 74.77,-53.57 84.86,-53.57 18.99,0 33.72,5.78 44.1,17.32 9.91,11.01 14.88,26.46 14.88,46.28 0,9.43 -10.44,29.7 -31.25,60.73 -5.4,8.05 -11.58,17.03 -18.53,26.9 11.13,-6.9 21.94,-13.06 32.43,-18.47 38.63,-19.93 73.27,-29.94 103.94,-29.94 70.12,0 105.19,37.38 105.19,112.13 0,43.68 -12.08,89.86 -36.2,138.57 -23.57,47.6 -58.82,97.79 -105.7,150.58 -40.19,45.48 -81.27,85.28 -123.21,119.32 -25.37,20.58 -51.06,39.08 -77.09,55.49 18.94,0.28 43.38,0.42 73.34,0.42l1.07 0.01c2.99,-0.8 6.19,-1.48 9.56,-2.02l-0.01 -0.03c21.52,-3.61 47.82,-12.17 78.82,-25.64 31.71,-13.78 68.21,-32.66 109.43,-56.59l0.07 0c46.67,-26.86 88.81,-48.64 126.46,-65.29 34.67,-15.35 66.05,-26.64 94.14,-33.84 17.79,-40.73 43.97,-82.22 78.43,-124.44 36.44,-44.65 82.16,-90.2 137.03,-136.67l0.01 0.01c58.54,-50.11 113.05,-87.85 163.47,-113.16 51.61,-25.91 99.08,-38.87 142.34,-38.87 34.25,0 60.53,7.74 78.79,23.25 19.13,16.25 28.71,39.84 28.71,70.78 0,73.42 -66.28,151.13 -198.84,233.48l-0.01 -0.02c-47.02,29.53 -94.79,55.93 -143.22,79.17 -46.12,22.13 -92.59,41.29 -139.38,57.46 -3.36,8.81 -6.01,17.71 -7.9,26.68 -2.37,11.27 -3.59,22.91 -3.59,34.93 0,16.82 2.7,30.32 8.12,40.55 4.86,9.17 12.26,16.01 22.21,20.54 5.56,1.94 13.9,3.66 25,5.11 12.18,1.59 27.32,2.79 45.42,3.52l0 0.01c8.35,0.24 15.74,1 22.16,2.27 3.36,-1.23 7,-2.27 10.91,-3.1l0.34 -0.07c33.2,-6.38 72.73,-22.24 118.57,-47.51 46.81,-25.8 99.63,-61.07 158.52,-105.73l-0.03 -0.04 313.29 -250.17 -0.01 -0.01c86.59,-70.86 163.44,-124.25 230.6,-160.06 68.62,-36.59 127.47,-54.92 176.68,-54.92 54,0 83.73,19.63 89.51,58.9 5.31,1.67 9.91,4.27 13.81,7.8 7.96,7.2 11.89,17.06 11.89,29.64 0,12.44 -4.73,22.02 -14.25,28.89 -4.85,3.49 -10.8,5.95 -17.87,7.39 -7.57,24.09 -17.73,48.11 -30.51,72.09 -14.65,27.53 -32.64,54.78 -53.95,81.82l-0.03 -0.03c-25.83,33.09 -51.46,58.06 -76.83,74.83 -26.81,17.73 -53.51,26.6 -80.05,26.6 -17.96,0 -32,-4.63 -42.08,-13.91 -10.49,-9.66 -15.75,-23.27 -15.75,-40.84 0,-21.08 8.28,-44.57 24.85,-70.41 15.42,-24.04 38.34,-50.61 68.77,-79.64l0.01 0.01c26.28,-25.67 51.39,-47.18 75.18,-64.48 19.91,-14.48 39.08,-26.16 57.42,-34.99 -20.53,2.5 -49.86,18.06 -87.92,46.61 -44.07,33.04 -98.48,82.92 -163.17,149.52 -64.49,66.58 -112.9,123.07 -145.14,169.4 -30.59,43.98 -45.93,77.47 -45.93,100.41 0,26.6 10.92,45.23 32.76,55.56 5.97,2.83 14.92,5.37 26.86,7.69 13.09,2.54 29.02,4.7 47.86,6.54l0.2 0c6.86,0.74 13.06,1.69 18.6,2.84 3.17,-1.4 6.62,-2.57 10.34,-3.53l0.68 -0.2c12.22,-2.59 27.98,-7.14 47.1,-13.69 18.83,-6.44 40.55,-14.67 64.98,-24.67 24.41,-12.74 64.13,-39.1 119.18,-78.92 56.58,-40.94 127.96,-95.11 214.18,-162.44l0 -0.07c65.09,-50.66 117.41,-91.92 156.92,-123.71 40.39,-32.51 68.65,-56.07 84.71,-70.63l-0.03 -0.03c29.37,-26.71 60.31,-58 92.72,-93.74 25.43,-28.05 52.09,-59.2 79.91,-93.37l-367.91 14.31 -0.61 0.07c-14.12,0 -25.31,-2.25 -33.55,-6.64 -11.85,-6.34 -17.73,-16 -17.73,-28.85 0,-12.64 8.28,-22.22 24.8,-28.85 10.56,-4.24 25.77,-7.78 45.59,-10.67l0 0.01c25.9,-4.23 57.39,-8.13 94.31,-11.72 37.22,-3.64 79.17,-6.94 125.8,-9.99l0.07 0c50.58,-2.98 94.44,-5.93 131.36,-8.77 33.33,-2.56 60.26,-5.03 80.69,-7.32l156.91 -187.61 0.06 -0.07c43.58,-51.53 78.62,-90.34 105.17,-116.4 29.5,-28.95 51.07,-43.44 64.82,-43.44 16.92,0 29.93,5.79 39.06,17.35 8.16,10.33 12.22,24.59 12.22,42.78 0,18.93 -18.15,55.2 -54.35,108.78 -30.26,44.78 -73.78,103.21 -130.47,175.25 24.4,-1.46 47.62,-2.65 69.62,-3.55 33.87,-1.4 63.4,-2.1 88.57,-2.1 19.54,0 34.68,2.15 45.38,6.37l-0.01 0.02c16,6.33 24.01,16.84 24.01,31.41 0,16.6 -14.84,28.48 -44.55,35.67 -21.89,5.31 -54.18,9.32 -96.91,12.07l-0.55 0 -163.39 5.51 -246.63 308.09 0.03 0.03c-79.06,103.05 -138.3,185.19 -177.68,246.41 -37.8,58.77 -56.71,96.48 -56.71,113.15 0,3.7 0.87,6.22 2.58,7.51 3.4,2.55 9.65,3.92 18.74,4.05 7.57,0.11 14.32,0.71 20.26,1.79 4.05,-1.39 8.49,-2.54 13.32,-3.45l0.07 0c11.37,-2.1 24.84,-5.92 40.46,-11.5l0.07 0c15.78,-5.62 33.59,-13.04 53.52,-22.25l0.27 -0.14c29.36,-13.01 66.33,-35.28 110.86,-66.75 45.1,-31.88 97.78,-73.09 158.05,-123.6l0.07 0c53.11,-44.16 100.53,-85.58 142.17,-124.17 38.74,-35.91 71.98,-68.98 99.68,-99.14 -1.31,-8.64 -2.34,-15.92 -3.09,-21.77 -1.13,-8.81 -1.7,-14.8 -1.7,-17.74 0,-14.09 7.28,-30.6 21.8,-49.62 12.72,-16.66 31.69,-36.24 56.83,-58.79l0 -0.06c24.78,-22.03 45.99,-38.72 63.49,-50.04l0.07 -0.06c19.62,-12.67 35.69,-19.02 48.12,-19.02 13.06,0 23.38,3.44 31.02,10.37l0.06 0c8.09,7.37 12.11,17.53 12.11,30.51 0,9.13 -2.77,20.38 -8.34,33.84l0 0.07c-2.26,5.45 -5.02,11.38 -8.32,17.8 77.44,7.46 116.02,46.7 116.02,117.74 0,29.94 -14.73,67.79 -44.12,113.32 -28.06,43.47 -69.92,94.84 -125.47,153.9 -54.55,58.18 -95.53,103.58 -122.89,136.2 -24.75,29.53 -37.17,45.79 -37.17,48.7 0,2.26 0.19,3.59 0.55,3.96 0.58,0.6 2.11,1.08 4.51,1.4l35.51 -1.11c2.9,-0.86 5.99,-1.56 9.27,-2.12l0.2 0c33.33,-5.25 73.6,-21.06 120.74,-47.37 48.14,-26.86 103.06,-64.5 164.71,-112.83l145.45 -113.9 -0.02 -0.03 233.38 -186.01 0.95 -0.68c54.42,-37.51 105.16,-65.78 152.08,-84.69 47.84,-19.28 91.88,-28.96 131.96,-28.96 32.47,0 58.28,8.53 77.41,25.62 12.53,11.18 21.81,25.76 27.83,43.67 6.03,-5.04 11.58,-9.33 16.66,-12.83 13.26,-9.16 24.55,-13.71 33.69,-13.71 16.58,0 29.56,3.81 39,11.5 10.52,8.55 15.74,20.64 15.74,36.32 0,16.96 -15.54,47.07 -46.53,90.39l0 0.07c-28.98,40.48 -72.53,94.7 -130.59,162.66 -57.48,66.88 -100.55,119.8 -129.16,158.71 -26.62,36.19 -39.93,58.1 -39.93,65.7 0,1.7 0.48,2.88 1.41,3.49 3.46,2.28 9.82,3.56 19.04,3.84 15.05,0.46 26.81,2.95 35.21,7.31 12.44,6.48 18.67,16.28 18.67,29.26 0,16.13 -10.56,27.39 -31.72,33.67 -14.43,4.27 -35.2,6.45 -62.31,6.45 -29.5,0 -52.19,-7.05 -68.09,-21.08 -16.53,-14.59 -24.78,-35.61 -24.78,-62.94 0,-19.88 5.54,-43.51 16.55,-70.86 1.1,-2.74 2.26,-5.52 3.48,-8.34l-70.38 59.72 -0.82 0.68c-34.98,26.14 -66.75,45.86 -95.22,59.19 -29.79,13.95 -56.11,20.9 -78.84,20.9 -37.14,0 -65.54,-9.93 -85.15,-29.78 -19.52,-19.75 -29.29,-48.36 -29.29,-85.81 0,-19.22 2.26,-39.4 6.81,-60.55 0.75,-3.49 1.57,-7.01 2.45,-10.56 -81.65,62.3 -152.25,110.43 -211.7,144.34 -72,41.07 -128.55,61.62 -169.52,61.62 -1.35,0 -2.66,-0.06 -3.93,-0.19 -11.57,2.43 -26.05,3.66 -43.43,3.66 -32.3,0 -57.05,-7.64 -74.28,-22.95 -17.8,-15.84 -26.68,-38.75 -26.68,-68.77 0,-26.93 7.52,-56.97 22.59,-89.96 14.47,-31.67 35.98,-66.19 64.52,-103.42l-0.01 -0.01c17.66,-23.35 39.8,-49.82 66.54,-79.35 25.86,-28.57 55.7,-59.65 89.59,-93.15 28.09,-27.51 48.81,-48.5 62.18,-62.94l0 -0.07c10,-10.79 15.34,-12.72 16.07,-14.37l-1.78 0.07c-4.72,0 -11.94,0.96 -21.59,2.92 -9.99,2.04 -22.69,5.18 -38.03,9.49l-0.21 0.07c-15.16,4.06 -27.13,7.74 -35.92,10.99 -6.97,2.58 -11.3,4.51 -13.04,5.8 -175.41,166.31 -322.35,291.19 -440.84,374.55 -120.9,85.07 -213.7,127.63 -278.36,127.63 -0.9,0 -1.78,-0.02 -2.65,-0.08 -8.29,1.59 -17.93,2.39 -28.93,2.39 -37.33,0 -66.01,-8.05 -85.95,-24.18l-0.03 0.04c-21,-16.99 -31.53,-41.83 -31.53,-74.51 0,-23.29 5.83,-51.3 17.41,-83.89 11.2,-31.5 27.97,-67.72 50.22,-108.48l0.34 -0.61 50.31 -84.44 -260.77 205.19 -0.03 -0.04c-70.38,55.56 -132.85,97.38 -187.43,125.39 -56.13,28.79 -104.41,43.22 -144.84,43.22 -2.57,0 -5.01,-0.23 -7.31,-0.7 -13.92,2.76 -32.16,4.17 -54.69,4.17 -63.15,0 -111.04,-14.9 -143.68,-44.6 -33.15,-30.18 -49.71,-74.54 -49.71,-133 0,-29.23 7.08,-63.68 21.24,-103.56l-183.82 144.17 -0.61 0.48c-61.93,43.96 -116.58,76.94 -163.94,98.98l0.01 0.03c-48.78,22.7 -90.43,34.03 -124.94,34.03 -2.09,0 -4.1,-0.15 -6.01,-0.44 -2.65,0.68 -5.43,1.32 -8.35,1.91 -24.5,4.94 -60.4,7.39 -107.71,7.39 -53.18,0 -93.65,-12.02 -121.39,-36.1 -28.48,-24.73 -42.73,-60.97 -42.73,-108.76 0,-10.21 0.74,-21.16 2.22,-32.89l0.82 -6.07c-14.37,5.49 -31.54,13.13 -51.52,22.92 -34.49,16.9 -77.67,40.48 -129.48,70.71l-0.13 0c-46.64,26.85 -87.76,46.98 -123.23,60.39 -36.94,13.97 -68.35,20.94 -94.13,20.94 -2.29,0 -4.48,-0.19 -6.56,-0.55 -15.81,3.43 -37.38,5.17 -64.68,5.17 -24.93,0 -48,-1.91 -69.19,-5.66 -19.23,-3.4 -36.94,-8.35 -53.15,-14.77 -7.85,2.54 -15.75,4.55 -23.67,5.99l-0.06 0c-10.47,1.9 -20.85,2.89 -31.08,2.89 -2.31,0 -5.24,-0.1 -8.64,-0.27 -38.05,-1.94 -66.87,-16.68 -86.36,-44.14 -15.09,-21.24 -24.02,-49.78 -26.76,-85.6l-573.87 645.61 -0.01 -0.01c-8.16,9.44 -16.23,16.63 -24.14,21.6 -9.47,5.94 -18.86,8.89 -28.1,8.89 -17.86,0 -31.26,-7.42 -40.28,-22.22 -7.35,-12.06 -11,-28.95 -11,-50.62 0,-21.63 20.51,-60.64 61.56,-116.86 39.15,-53.61 97.23,-124.19 174.24,-211.57l0.27 -0.2 234.53 -256.1 217.43 -237.6zm164.12 215.83c36.77,-22.51 72.53,-49.7 107.19,-81.56 39.7,-36.5 77.89,-79.03 114.41,-127.6 36.85,-49.02 64.48,-89.72 82.83,-122.08 17.12,-30.2 25.7,-51.91 25.7,-65.09 0,-5.44 -0.98,-9.06 -2.94,-10.82 -2.49,-2.24 -7.41,-3.37 -14.71,-3.37 -19,0 -44.64,9.67 -76.93,29.02 -34.23,20.51 -75,51.5 -122.32,92.95 -34.25,29.87 -66.92,60.16 -97.96,90.87 -24.69,24.43 -48.23,48.99 -70.57,73.67 4.06,2.94 7.89,6.54 11.49,10.81 9.71,11.47 17.62,28.02 23.7,49.54l-0.03 0.01c6.96,23.92 12.84,42.85 17.65,56.64l2.49 7.01zm-73.77 28.74l-15.94 -58.06 -0.02 0c-3.71,-13.32 -7.08,-24.22 -10.09,-32.75 -2.11,10.91 -3.17,25.94 -3.17,45.08 0,17.34 2.68,29.8 8.02,37.29 4.02,5.63 10.57,8.47 19.64,8.47l1.56 -0.03zm-24.17 -104.24c1.54,-0.49 2.3,-0.74 0.28,-0.74 -0.35,0 -0.37,0.25 -0.28,0.74zm902.07 -87.62c19.16,-10.59 38.59,-22.08 58.29,-34.48 36.19,-22.77 73.27,-48.5 111.3,-77.03l0.06 -0.07c49.91,-37.1 87.28,-70.21 111.98,-99.29 22.79,-26.83 34.23,-49.3 34.23,-67.4 0,-4.63 -0.5,-7.5 -1.49,-8.58l-0.07 0c-0.59,-0.64 -2.5,-0.98 -5.69,-0.98 -21.02,0 -46.71,10.28 -77.05,30.85 -32.08,21.76 -68.78,54.77 -110.06,99.06 -36.9,40.12 -67.48,77.4 -91.67,111.69 -11.37,16.1 -21.31,31.51 -29.83,46.23zm1033.18 -180.78c-7.12,6.66 -14.64,13.96 -22.55,21.87l-0.07 0c-20.72,20.54 -36.22,37.78 -46.42,51.73 -2.77,3.78 -5.08,7.19 -6.95,10.22 3.35,-2.11 7.04,-4.82 11.06,-8.15 13.08,-10.85 28.29,-27.48 45.63,-49.8 6.95,-8.95 13.38,-17.58 19.3,-25.87zm1201.72 -47.51c0.33,0.2 0.58,0.37 0.24,0.08l0 -0.07 -0.24 -0.01zm801.82 -36.05c-18.45,0 -49.08,15.46 -91.83,46.35 -45.06,32.56 -102.14,81.76 -171.18,147.54 -68.83,65.41 -120.44,119.95 -154.75,163.5 -32.34,41.06 -48.54,70.72 -48.54,88.89 0,5.58 0.79,9.19 2.37,10.84 1.4,1.46 4.59,2.19 9.5,2.19 17.77,0 48.24,-15.18 91.31,-45.56 45.34,-31.98 102.93,-80.08 172.68,-144.3 69.86,-64.31 122.13,-117.99 156.8,-161 32.65,-40.5 48.99,-70.01 48.99,-88.49 0,-8.2 -1.26,-13.77 -3.79,-16.65 -1.93,-2.21 -5.79,-3.31 -11.56,-3.31zm1883.04 -117.97l67.16 0 1.83 0.14c27.83,2.97 49.11,9 63.86,18.04 18.13,11.13 27.18,26.27 27.18,45.43 0,15.74 -8.05,27.3 -24.03,34.57l-0.07 0c-11.47,5.21 -27.61,7.85 -48.36,7.85l-1.09 -0.07 -73.38 -4.61 -96.15 1.05 -225.16 285.03 -0.07 0.14c-78.12,97.28 -138.69,170.11 -181.7,218.51 -46.45,52.27 -76.39,78.38 -89.85,78.38 -21.17,0 -39.62,-13.54 -54.78,-40.57l-0.01 0.01c-6.46,-10.34 -11.38,-20.42 -14.7,-30.22l0 -0.07c-3.5,-10.38 -5.28,-20.4 -5.28,-30.1 0,-15.46 33.37,-66.61 100.09,-153.29 60.31,-78.38 148.31,-187.64 263.96,-327.66l-50.89 0 0 -0.07c-61.39,0.38 -138.07,2.34 -230.11,5.9 -88.56,3.42 -191.97,8.41 -310.33,14.96l-376.78 321.22 -0.01 -0.02 -147.61 131.84 -0.21 0.2c-40.28,34.84 -72.79,61.09 -97.47,78.66 -27.3,19.46 -47.11,29.21 -59.44,29.21 -15.46,0 -27.52,-4.47 -36.23,-13.5 -8.51,-8.82 -12.74,-21.01 -12.74,-36.62 0,-18.43 29.16,-55.57 87.49,-111.21 54.72,-52.21 136.4,-123.37 245.02,-213.34l0.03 0.04 218.55 -181.41c-147.17,7.12 -260.59,14.47 -340.26,22.04 -40.25,3.82 -71.1,7.21 -92.53,10.16 25.76,2.78 62.49,4.21 110.13,4.21l0 0.07 150.67 -2.3 0 -0.01 4.9 -0.15c11.32,0 20.4,1.76 27.25,5.2l-0.01 0.03c10.47,5.25 15.87,13.5 16.28,24.6l0 0.27 0.01 0.51 0.07 0.34c0,32.84 -87.83,48.97 -263.48,48.97 -71.29,0 -125.19,-4.62 -161.59,-13.83 -43.75,-11.08 -65.68,-30 -65.68,-56.71 0,-28.32 12.64,-51.95 37.95,-70.82 22.74,-16.97 56.09,-29.86 100.04,-38.65l0.01 0.03c12.43,-2.79 33.34,-5.58 62.75,-8.42 29.82,-2.87 67.51,-5.79 113.18,-8.83l0.06 0 434.51 -28.89c87.69,-72.31 194.34,-155.54 319.91,-249.69 127.4,-95.52 273.58,-201.72 438.54,-318.61l0.06 -0.07c210.36,-148.66 378.56,-260.31 504.47,-334.86 128.22,-75.92 214.28,-113.91 258.03,-113.91 25.89,0 45.7,8.84 59.35,26.53 12.57,16.31 18.89,39.58 18.89,69.81 0,25.32 -14.11,61.43 -42.28,108.21 -26.84,44.6 -67.09,100.25 -120.64,166.85l0 0.07 -509.31 629.43zm-206.46 0.21l524.04 -635.79 98.2 -119.77c20.63,-26.09 37.86,-49.29 51.67,-69.6l0.03 0.02c10.13,-14.9 18.25,-28.06 24.38,-39.46 -23.95,9.19 -82.32,45.04 -175.07,107.53 -111.77,75.3 -270.26,188 -475.44,338.05l0 -0.01 -575.91 427.99 528.1 -8.96z"/>
    <g>
     <path class="fil2" d="M10842.15 7937.2l1830.05 -469.75c1.99,3.57 4.09,7.09 6.05,10.66l-1804.85 528.86c11.51,27.94 21.96,56.43 31.43,85.34l1935.79 -259.36 3.01 8.39 -1917.58 323.08c3.36,12.8 6.5,25.69 9.44,38.63l2020.26 44.16 0 5.99 -2005.85 23.76 0.99 5.97 -1454.41 0 675.37 -968.78 3.31 1.34 779.04 -1127.92c12.37,2.81 24.65,5.85 36.95,8.82l-739.19 1153.21c18.72,9.06 37.17,18.57 55.38,28.48l969.78 -1095.39c10.51,3.83 20.96,7.8 31.4,11.77l-929.71 1125.68c18.94,11.97 37.51,24.4 55.73,37.33l1162.85 -1033.11c8.57,4.49 17.18,8.93 25.69,13.52l-1123.39 1068.95c18.65,15.09 36.86,30.7 54.61,46.81l1352.32 -939.2c6.63,4.74 13.28,9.49 19.87,14.29l-1314.34 980.83c17.86,18.37 35.17,37.28 51.89,56.71l1531.37 -813.09 14.48 13.92 -1496.11 860.73c16.42,21.72 32.15,43.97 47.16,66.73l1692.97 -655.75 9.82 12.62 -1661.97 709.33c14.31,24.95 27.77,50.46 40.39,76.44z"/>
     <g>
      <path class="fil3" d="M10250.9 8282.91c0,0 -116.45,-55.89 -46.58,-274.82 69.88,-218.94 32.61,-298.13 4.66,-340.05 0,0 270.18,428.55 41.92,614.87z"/>
      <path class="fil4" d="M10269.74 8282.91c0,0 -116.45,-55.89 -46.58,-274.82 69.87,-218.94 32.61,-298.13 4.66,-340.05 0,0 270.17,428.55 41.92,614.87z"/>
     </g>
    </g>
   </g>
   <polygon class="fil5" points="2044.24,8963.58 12954.92,8963.58 12954.92,9056.38 2044.24,9056.38 "/>
   <path class="fil6" d="M2341.39 9491.89l0 90.05 -96.42 0 0 422.16 -99.89 0 0 -422.16 -96.42 0 0 -90.05 292.73 0zm323.71 512.21l-276.53 0 0 -512.21 276.53 0 0 90.05 -177.35 0 0 116.83 177.35 0 0 88.61 -177.35 0 0 126.67 177.35 0 0 90.05zm564.93 -360.33l-122.47 0c-14.53,-19.69 -31.82,-34.45 -51.87,-44.3 -20.05,-9.85 -42.87,-14.77 -68.44,-14.77 -20.65,0 -40.22,3.84 -58.71,11.65 -18.61,7.68 -34.94,18.97 -49.35,33.74 -15.13,15.49 -27.02,33.38 -35.3,53.67 -8.29,20.29 -12.49,41.06 -12.49,62.43 0,46.95 15.13,86.21 45.27,118.03 30.13,31.82 67,47.67 110.7,47.67 25.09,0 47.67,-4.69 67.72,-14.05 20.05,-9.37 36.26,-23.05 48.75,-40.82l122.71 0c-23.9,52.35 -55.84,91.61 -95.7,117.9 -39.86,26.3 -87.53,39.39 -142.88,39.39 -38.42,0 -73.84,-7.45 -106.38,-22.22 -32.54,-14.77 -61.6,-36.62 -87.41,-65.79 -21.85,-24.14 -38.42,-51.63 -49.59,-82.49 -11.28,-30.74 -16.93,-63.76 -16.93,-98.94 0,-35.66 6.85,-69.52 20.41,-101.58 13.57,-31.93 33.5,-61.11 59.8,-87.41 24.85,-24.37 52.47,-42.86 82.85,-55.35 30.37,-12.6 63.03,-18.85 97.97,-18.85 56.07,0 103.98,13.33 143.72,40.11 39.75,26.65 72.28,67.35 97.62,121.98zm160.77 152.01l0 208.32 -100.26 0 0 -512.21 100.26 0 0 207.48 164.62 0 0 -207.48 100.25 0 0 512.21 -100.25 0 0 -208.32 -164.62 0zm448.47 208.32l-98.47 0 0 -512.21 94.99 0 211.8 327.18 0 -327.18 98.09 0 0 512.21 -92.93 0 -213.48 -337.03 0 337.03zm474.87 -260.67c0,22.09 3.6,42.63 10.93,61.6 7.2,18.97 18.01,36.38 32.3,52.11 15.72,17.05 33.62,30.25 53.55,39.5 19.93,9.24 40.58,13.93 61.83,13.93 44.91,0 82.49,-15.97 112.87,-47.91 30.37,-31.82 45.5,-71.56 45.5,-119.23 0,-43.7 -15.25,-80.92 -45.86,-111.78 -30.62,-30.86 -67.36,-46.23 -110.35,-46.23 -44.78,0 -82.72,15.37 -113.94,46.11 -31.22,30.74 -46.83,68.08 -46.83,111.9zm-105.18 3.48c0,-28.09 3.72,-54.63 11.29,-79.6 7.44,-24.98 18.61,-48.39 33.38,-70.24 25.33,-36.86 57.15,-65.2 95.33,-85.25 38.18,-20.05 79.97,-30.14 125.23,-30.14 33.98,0 66.76,6.61 98.34,19.69 31.58,13.09 59.79,32.06 84.65,56.68 25.57,25.57 45.02,54.27 58.35,86.21 13.33,31.81 20.05,65.43 20.05,100.61 0,36.5 -6.24,70.96 -18.85,103.02 -12.49,32.18 -30.98,60.64 -55.35,85.49 -24.62,26.05 -53.31,45.99 -86.09,60.03 -32.66,13.93 -66.88,20.9 -102.54,20.9 -38.18,0 -73.36,-6.85 -105.54,-20.42 -32.06,-13.56 -60.51,-33.74 -85.49,-60.51 -23.89,-25.33 -42.02,-53.79 -54.27,-85.25 -12.37,-31.58 -18.49,-65.32 -18.49,-101.22zm849.61 257.19l-259.96 0 0 -512.21 99.18 0 0 422.16 160.78 0 0 90.05zm113.95 -260.67c0,22.09 3.6,42.63 10.93,61.6 7.2,18.97 18.01,36.38 32.3,52.11 15.72,17.05 33.62,30.25 53.55,39.5 19.93,9.24 40.58,13.93 61.83,13.93 44.91,0 82.49,-15.97 112.87,-47.91 30.37,-31.82 45.5,-71.56 45.5,-119.23 0,-43.7 -15.25,-80.92 -45.86,-111.78 -30.62,-30.86 -67.36,-46.23 -110.35,-46.23 -44.78,0 -82.72,15.37 -113.94,46.11 -31.22,30.74 -46.83,68.08 -46.83,111.9zm-105.18 3.48c0,-28.09 3.72,-54.63 11.29,-79.6 7.44,-24.98 18.61,-48.39 33.38,-70.24 25.33,-36.86 57.15,-65.2 95.33,-85.25 38.18,-20.05 79.97,-30.14 125.23,-30.14 33.98,0 66.76,6.61 98.34,19.69 31.58,13.09 59.79,32.06 84.65,56.68 25.57,25.57 45.02,54.27 58.35,86.21 13.33,31.81 20.05,65.43 20.05,100.61 0,36.5 -6.24,70.96 -18.85,103.02 -12.49,32.18 -30.98,60.64 -55.35,85.49 -24.62,26.05 -53.31,45.99 -86.09,60.03 -32.66,13.93 -66.88,20.9 -102.54,20.9 -38.18,0 -73.36,-6.85 -105.54,-20.42 -32.06,-13.56 -60.51,-33.74 -85.49,-60.51 -23.89,-25.33 -42.02,-53.79 -54.27,-85.25 -12.37,-31.58 -18.49,-65.32 -18.49,-101.22zm1093.7 -15.12c0,1.92 0.12,4.8 0.36,8.64 0.24,3.84 0.36,6.72 0.36,8.64 0,21.98 -2.04,42.51 -6,61.36 -3.96,18.85 -10.09,36.62 -18.25,53.31 -24.14,48.03 -57.03,85.13 -98.7,111.3 -41.66,26.18 -88.73,39.27 -141.2,39.27 -38.78,0 -74.56,-7.45 -107.34,-22.22 -32.9,-14.77 -62.44,-36.62 -88.61,-65.79 -21.85,-24.38 -38.54,-51.99 -49.95,-82.97 -11.53,-30.98 -17.29,-63.76 -17.29,-98.46 0,-35.66 6.97,-69.52 20.77,-101.58 13.81,-31.93 34.1,-61.11 60.88,-87.41 25.33,-25.09 53.43,-43.7 84.53,-55.95 31.09,-12.12 65.55,-18.25 103.25,-18.25 55.12,0 102.78,13.45 142.89,40.47 40.1,26.89 70.96,66.27 92.81,118.14l-121.75 0c-14.77,-18.49 -32.18,-32.42 -52.23,-41.66 -20.05,-9.25 -42.5,-13.93 -67.36,-13.93 -43.82,0 -80.92,15.85 -111.42,47.55 -30.5,31.58 -45.75,70.12 -45.75,115.38 0,45.99 15.37,84.77 46.23,116.35 30.86,31.58 68.8,47.31 113.82,47.31 31.22,0 59.56,-8.41 85.01,-25.34 25.46,-16.93 44.19,-39.74 56.43,-68.32l-201.23 0 0 -85.84 319.74 0zm220.94 88.01l0 184.3 -100.26 0 0 -184.3 -146.73 -327.91 110.11 0 88.73 220.56 87.89 -220.56 109.38 0 -149.12 327.91zm350.36 25.33l91.49 -0.36 0 7.44c0,21.5 5.64,38.79 16.93,51.75 11.16,13.09 26.17,19.57 44.9,19.57 20.18,0 36.14,-6 47.91,-18.13 11.65,-12 17.53,-28.45 17.53,-49.1 0,-33.02 -23.65,-56.68 -71.08,-70.96 -6,-1.93 -10.93,-3.49 -14.41,-4.57 -39.86,-12.48 -69.4,-30.13 -88.61,-52.95 -19.21,-22.93 -28.81,-51.87 -28.81,-86.81 0,-48.02 13.32,-86.57 39.86,-115.74 26.65,-29.06 62.07,-43.59 106.38,-43.59 41.54,0 74.56,12.97 99.18,38.9 24.61,25.82 38.42,62.08 41.18,108.79l-90.77 0 0 -4.21c0,-16.45 -4.93,-29.65 -14.77,-39.74 -9.85,-10.08 -22.69,-15.13 -38.66,-15.13 -16.45,0 -29.3,5.17 -38.79,15.49 -9.48,10.33 -14.28,24.38 -14.28,42.15 0,7.56 0.96,14.16 3,19.93 1.92,5.76 5.04,10.92 9.24,15.61 9.73,10.56 30.26,20.29 61.96,29.29 14.05,3.72 24.85,6.85 32.42,9.49 35.18,11.88 61.11,29.05 77.92,51.39 16.69,22.21 25.1,50.79 25.1,85.49 0,52.71 -14.65,95.09 -43.95,127.15 -29.3,32.06 -68.32,48.03 -116.83,48.03 -45.74,0 -82.6,-15.49 -110.82,-46.47 -28.09,-30.86 -42.5,-71.8 -43.22,-122.71zm458.66 -101.7c0,22.09 3.6,42.63 10.93,61.6 7.2,18.97 18.01,36.38 32.3,52.11 15.72,17.05 33.62,30.25 53.55,39.5 19.93,9.24 40.58,13.93 61.83,13.93 44.92,0 82.5,-15.97 112.88,-47.91 30.37,-31.82 45.5,-71.56 45.5,-119.23 0,-43.7 -15.25,-80.92 -45.86,-111.78 -30.62,-30.86 -67.36,-46.23 -110.36,-46.23 -44.78,0 -82.72,15.37 -113.94,46.11 -31.22,30.74 -46.83,68.08 -46.83,111.9zm-105.18 3.48c0,-28.09 3.72,-54.63 11.29,-79.6 7.44,-24.98 18.61,-48.39 33.38,-70.24 25.33,-36.86 57.15,-65.2 95.33,-85.25 38.18,-20.05 79.97,-30.14 125.23,-30.14 33.99,0 66.77,6.61 98.35,19.69 31.58,13.09 59.79,32.06 84.65,56.68 25.57,25.57 45.02,54.27 58.35,86.21 13.33,31.81 20.05,65.43 20.05,100.61 0,36.5 -6.24,70.96 -18.85,103.02 -12.49,32.18 -30.98,60.64 -55.35,85.49 -24.62,26.05 -53.31,45.99 -86.09,60.03 -32.66,13.93 -66.88,20.9 -102.55,20.9 -38.18,0 -73.36,-6.85 -105.54,-20.42 -32.06,-13.56 -60.51,-33.74 -85.49,-60.51 -23.89,-25.33 -42.02,-53.79 -54.27,-85.25 -12.37,-31.58 -18.49,-65.32 -18.49,-101.22zm849.61 257.19l-259.95 0 0 -512.21 99.18 0 0 422.16 160.77 0 0 90.05zm44.42 -512.21l100.26 0 0 295.49c0,46.22 4.92,78.28 14.65,96.29 9.73,17.89 26.41,26.9 50.07,26.9 23.65,0 40.34,-9.01 50.07,-26.9 9.72,-18.01 14.64,-50.07 14.64,-96.29l0 -295.49 100.26 0 0 325.14c0,36.02 -2.04,63.16 -6,81.17 -3.96,18.13 -10.69,33.86 -20.05,47.55 -15.97,23.41 -35.18,40.7 -57.64,51.87 -22.57,11.16 -49.58,16.69 -81.28,16.69 -31.7,0 -58.72,-5.53 -81.29,-16.69 -22.45,-11.17 -41.66,-28.46 -57.63,-51.87 -9.37,-13.69 -16.09,-28.82 -20.05,-45.75 -3.96,-16.93 -6.01,-44.54 -6.01,-82.97l0 -325.14zm669.76 0l0 90.05 -96.42 0 0 422.16 -99.9 0 0 -422.16 -96.42 0 0 -90.05 292.74 0zm47.78 512.21l0 -512.21 100.26 0 0 512.21 -100.26 0zm268.48 -260.67c0,22.09 3.6,42.63 10.93,61.6 7.2,18.97 18.01,36.38 32.3,52.11 15.72,17.05 33.62,30.25 53.55,39.5 19.93,9.24 40.58,13.93 61.83,13.93 44.91,0 82.49,-15.97 112.87,-47.91 30.37,-31.82 45.5,-71.56 45.5,-119.23 0,-43.7 -15.25,-80.92 -45.86,-111.78 -30.62,-30.86 -67.36,-46.23 -110.35,-46.23 -44.78,0 -82.72,15.37 -113.94,46.11 -31.22,30.74 -46.83,68.08 -46.83,111.9zm-105.18 3.48c0,-28.09 3.72,-54.63 11.29,-79.6 7.44,-24.98 18.61,-48.39 33.38,-70.24 25.33,-36.86 57.15,-65.2 95.33,-85.25 38.18,-20.05 79.97,-30.14 125.23,-30.14 33.98,0 66.76,6.61 98.34,19.69 31.58,13.09 59.79,32.06 84.65,56.68 25.57,25.57 45.02,54.27 58.35,86.21 13.33,31.81 20.05,65.43 20.05,100.61 0,36.5 -6.24,70.96 -18.85,103.02 -12.49,32.18 -30.98,60.64 -55.35,85.49 -24.62,26.05 -53.31,45.99 -86.09,60.03 -32.66,13.93 -66.88,20.9 -102.54,20.9 -38.18,0 -73.36,-6.85 -105.54,-20.42 -32.06,-13.56 -60.51,-33.74 -85.49,-60.51 -23.89,-25.33 -42.02,-53.79 -54.27,-85.25 -12.37,-31.58 -18.49,-65.32 -18.49,-101.22zm688.11 257.19l-98.46 0 0 -512.21 94.98 0 211.81 327.18 0 -327.18 98.09 0 0 512.21 -92.93 0 -213.49 -337.03 0 337.03zm361.3 -158.97l91.49 -0.36 0 7.44c0,21.5 5.64,38.79 16.93,51.75 11.16,13.09 26.17,19.57 44.9,19.57 20.18,0 36.14,-6 47.91,-18.13 11.65,-12 17.53,-28.45 17.53,-49.1 0,-33.02 -23.65,-56.68 -71.08,-70.96 -6,-1.93 -10.93,-3.49 -14.41,-4.57 -39.86,-12.48 -69.4,-30.13 -88.61,-52.95 -19.21,-22.93 -28.81,-51.87 -28.81,-86.81 0,-48.02 13.32,-86.57 39.86,-115.74 26.65,-29.06 62.07,-43.59 106.38,-43.59 41.54,0 74.56,12.97 99.18,38.9 24.61,25.82 38.42,62.08 41.18,108.79l-90.77 0 0 -4.21c0,-16.45 -4.93,-29.65 -14.77,-39.74 -9.85,-10.08 -22.69,-15.13 -38.66,-15.13 -16.45,0 -29.3,5.17 -38.79,15.49 -9.48,10.33 -14.28,24.38 -14.28,42.15 0,7.56 0.96,14.16 3,19.93 1.92,5.76 5.04,10.92 9.24,15.61 9.73,10.56 30.26,20.29 61.96,29.29 14.05,3.72 24.85,6.85 32.42,9.49 35.18,11.88 61.11,29.05 77.92,51.39 16.69,22.21 25.1,50.79 25.1,85.49 0,52.71 -14.65,95.09 -43.95,127.15 -29.3,32.06 -68.32,48.03 -116.83,48.03 -45.74,0 -82.6,-15.49 -110.82,-46.47 -28.09,-30.86 -42.5,-71.8 -43.22,-122.71zm685.95 -124.27l26.42 0c27.85,0 49.34,-6 64.23,-18.13 14.89,-12.01 22.34,-29.3 22.34,-51.87 0,-23.17 -7.21,-40.46 -21.62,-51.87 -14.4,-11.41 -36.38,-17.05 -65.67,-17.05l-25.7 0 0 138.92zm0 283.24l-100.26 0 0 -512.21 127.4 0c32.3,0 57.87,1.8 76.48,5.28 18.61,3.48 33.74,9.13 45.27,16.93 21.01,14.29 37.7,33.14 49.7,56.55 12.13,23.54 18.13,48.63 18.13,75.29 0,48.98 -16.2,88.25 -48.5,117.54 -32.42,29.3 -76.01,43.95 -130.88,43.95l-37.34 0 0 196.67zm467.44 0l-71.44 0 -183.6 -512.21 107.23 0 111.91 341.59 112.26 -341.59 106.5 0 -182.86 512.21zm465.74 -512.21l0 90.05 -96.42 0 0 422.16 -99.89 0 0 -422.16 -96.42 0 0 -90.05 292.73 0zm88.25 512.21l-90.06 0 0 -96.41 90.06 0 0 96.41zm572.01 0l-259.96 0 0 -512.21 99.18 0 0 422.16 160.78 0 0 90.05zm286.01 -512.21l0 90.05 -96.42 0 0 422.16 -99.89 0 0 -422.16 -96.42 0 0 -90.05 292.73 0zm215.04 424.32c55.47,0 96.41,-13.57 122.71,-40.82 26.29,-27.14 39.38,-69.76 39.38,-127.76 0,-53.19 -14.41,-94.61 -43.1,-124.15 -28.7,-29.53 -68.92,-44.3 -120.43,-44.3l-65.44 0 0 337.03 66.88 0zm6.24 87.89l-174.1 0 0 -512.21 171.34 0c46.47,0 83.57,4.68 111.55,14.05 27.85,9.36 53.19,25.09 76,47.18 24.13,23.42 42.38,51.75 54.87,85.13 12.37,33.26 18.61,70.72 18.61,112.27 0,46.34 -8.64,87.89 -26.05,124.63 -17.29,36.74 -42.51,66.87 -75.65,90.65 -18.73,13.81 -39.74,23.65 -62.91,29.54 -23.3,5.88 -54.39,8.76 -93.66,8.76z"/>
  </g>
  <path class="fil7" d="M12780.3 6552.31l0 -343.91 -128.47 0 0 -46.03 309.04 0 0 46.03 -129.01 0 0 343.91 -51.56 0zm231.87 0l0 -389.94 77.72 0 92.24 276.09c8.53,25.69 14.8,44.94 18.61,57.74 4.45,-14.16 11.35,-35.04 20.79,-62.55l93.33 -271.28 69.45 0 0 389.94 -49.75 0 0 -326.38 -113.3 326.38 -46.58 0 -112.76 -331.92 0 331.92 -49.75 0z"/>
 </g>
</svg>
